<svg width="24" height="24" viewBox="0 0 24 24" fill="none" xmlns="http://www.w3.org/2000/svg">
<path d="M3.144 19.588C3.176 19.66 3.192 19.736 3.192 19.816C3.192 19.92 3.156 20 3.084 20.056C3.012 20.12 2.908 20.152 2.772 20.152H2.532C2.268 20.152 2.084 20.028 1.98 19.78L1.308 18.184C1.244 18.04 1.192 17.852 1.152 17.62L0.744 15.04C0.728 14.88 0.72 14.78 0.72 14.74C0.72 14.684 0.728 14.584 0.744 14.44L1.152 11.848C1.192 11.616 1.244 11.428 1.308 11.284L1.98 9.688C2.084 9.44 2.268 9.316 2.532 9.316H2.772C2.908 9.316 3.012 9.348 3.084 9.412C3.156 9.468 3.192 9.548 3.192 9.652C3.192 9.732 3.176 9.808 3.144 9.88L2.46 11.368C2.38 11.544 2.324 11.736 2.292 11.944L1.932 14.44C1.916 14.584 1.908 14.684 1.908 14.74C1.908 14.796 1.916 14.896 1.932 15.04L2.292 17.524C2.324 17.732 2.38 17.924 2.46 18.1L3.144 19.588Z" fill="#EB4898"/>
<path d="M4.98 5.68C4.98 5.49333 5.04667 5.33333 5.18 5.2C5.31333 5.06667 5.47333 5 5.66 5H6.34C6.54 5 6.70667 4.94 6.84 4.82C6.97333 4.7 7.04 4.54667 7.04 4.36C7.04 4.17333 7.10667 4.02 7.24 3.9C7.37333 3.78 7.54 3.72 7.74 3.72H8C8.2 3.72 8.36667 3.78 8.5 3.9C8.63333 4.02 8.7 4.17333 8.7 4.36C8.7 4.54667 8.76667 4.7 8.9 4.82C9.03333 4.94 9.2 5 9.4 5H9.94C10.14 5 10.3067 5.06667 10.44 5.2C10.5733 5.33333 10.64 5.49333 10.64 5.68V6.16C10.64 6.36 10.5733 6.52667 10.44 6.66C10.3067 6.79333 10.14 6.86 9.94 6.86H9.4C9.21333 6.86 9.04667 6.92667 8.9 7.06C8.76667 7.19333 8.7 7.36 8.7 7.56V21.36C8.7 21.5467 8.62667 21.7067 8.48 21.84C8.34667 21.9867 8.18667 22.06 8 22.06H7.74C7.54 22.06 7.37333 21.9867 7.24 21.84C7.10667 21.7067 7.04 21.5467 7.04 21.36V7.56C7.04 7.36 6.96667 7.19333 6.82 7.06C6.68667 6.92667 6.52667 6.86 6.34 6.86H5.66C5.47333 6.86 5.31333 6.79333 5.18 6.66C5.04667 6.52667 4.98 6.36 4.98 6.16V5.68ZM12.18 20.2C12.3667 20.2 12.5267 20.1333 12.66 20C12.8067 19.8667 12.88 19.7 12.88 19.5V14.64C12.88 14.4533 12.86 14.2933 12.82 14.16C12.78 14.0133 12.74 13.94 12.7 13.94C12.6733 13.94 12.64 14.0133 12.6 14.16C12.5733 14.2933 12.56 14.4533 12.56 14.64V18.48C12.56 18.68 12.4867 18.8467 12.34 18.98C12.2067 19.1133 12.0467 19.18 11.86 19.18H11.76C11.5733 19.18 11.4133 19.1133 11.28 18.98C11.1467 18.8467 11.08 18.68 11.08 18.48V14.28C11.08 14.0933 11.12 13.88 11.2 13.64C11.28 13.3867 11.3733 13.18 11.48 13.02L11.76 12.68C11.88 12.5067 12 12.38 12.12 12.3C12.24 12.22 12.3733 12.16 12.52 12.12C12.6667 12.0667 12.7533 12.02 12.78 11.98C12.8467 11.8867 12.88 11.7933 12.88 11.7C12.88 11.5933 12.8467 11.5067 12.78 11.44C12.7267 11.36 12.6467 11.3267 12.54 11.34C12.34 11.34 12.08 11.1467 11.76 10.76L11.48 10.42C11.3733 10.26 11.28 10.0533 11.2 9.8C11.12 9.54667 11.08 9.32667 11.08 9.14V5.14C11.08 4.94 11.1467 4.77333 11.28 4.64C11.4133 4.50667 11.5733 4.44 11.76 4.44H11.86C12.0467 4.44 12.2067 4.50667 12.34 4.64C12.4867 4.77333 12.56 4.94 12.56 5.14V8.78C12.56 8.96667 12.5733 9.13333 12.6 9.28C12.64 9.42667 12.6733 9.5 12.7 9.5C12.74 9.5 12.78 9.42667 12.82 9.28C12.86 9.13333 12.88 8.96667 12.88 8.78V4.4C12.88 4.21333 12.9467 4.05333 13.08 3.92C13.2133 3.78667 13.38 3.72 13.58 3.72H13.68C13.8667 3.72 14.0267 3.78667 14.16 3.92C14.2933 4.05333 14.36 4.21333 14.36 4.4V19.9C14.36 20.1 14.3267 20.32 14.26 20.56C14.1933 20.8133 14.1067 21.02 14 21.18L13.8 21.48C13.6933 21.64 13.5333 21.78 13.32 21.9C13.12 22.02 12.9267 22.08 12.74 22.08H11.88C11.6933 22.08 11.5333 22.0067 11.4 21.86C11.2667 21.7267 11.2 21.5667 11.2 21.38V20.88C11.2 20.6933 11.2667 20.5333 11.4 20.4C11.5333 20.2667 11.6933 20.2 11.88 20.2H12.18ZM16.84 11.34C16.72 11.3267 16.6267 11.36 16.56 11.44C16.4933 11.52 16.46 11.6133 16.46 11.72C16.46 11.8 16.4933 11.8867 16.56 11.98C16.6 12.0067 16.6933 12.0467 16.84 12.1C17 12.1533 17.14 12.22 17.26 12.3C17.3933 12.38 17.52 12.5067 17.64 12.68L17.9 13.02C18.02 13.18 18.12 13.3867 18.2 13.64C18.28 13.88 18.32 14.0933 18.32 14.28V18.48C18.32 18.68 18.2533 18.8467 18.12 18.98C17.9867 19.1133 17.8267 19.18 17.64 19.18H17.54C17.3533 19.18 17.1867 19.1133 17.04 18.98C16.9067 18.8467 16.84 18.68 16.84 18.48V14.64C16.84 14.4533 16.82 14.2933 16.78 14.16C16.74 14.0133 16.6933 13.94 16.64 13.94C16.5867 13.94 16.54 14.0133 16.5 14.16C16.4733 14.2933 16.46 14.4533 16.46 14.64V19.5C16.46 19.7 16.5267 19.8667 16.66 20C16.8067 20.1333 16.98 20.2 17.18 20.2H17.64C17.8267 20.2 17.9867 20.2667 18.12 20.4C18.2533 20.5333 18.32 20.6933 18.32 20.88V21.38C18.32 21.5667 18.2533 21.7267 18.12 21.86C17.9867 22.0067 17.8267 22.08 17.64 22.08H16.64C16.44 22.08 16.2333 22.02 16.02 21.9C15.8067 21.78 15.6467 21.64 15.54 21.48L15.34 21.18C15.2467 21.0067 15.16 20.7933 15.08 20.54C15.0133 20.3 14.98 20.0867 14.98 19.9V4.4C14.98 4.21333 15.0467 4.05333 15.18 3.92C15.3267 3.78667 15.5 3.72 15.7 3.72H15.76C15.96 3.72 16.1267 3.78667 16.26 3.92C16.3933 4.05333 16.46 4.21333 16.46 4.4V8.78C16.46 8.96667 16.4733 9.13333 16.5 9.28C16.54 9.42667 16.5867 9.5 16.64 9.5C16.6933 9.5 16.74 9.42667 16.78 9.28C16.82 9.13333 16.84 8.96667 16.84 8.78V5.14C16.84 4.94 16.9067 4.77333 17.04 4.64C17.1867 4.50667 17.3533 4.44 17.54 4.44H17.64C17.8267 4.44 17.9867 4.50667 18.12 4.64C18.2533 4.77333 18.32 4.94 18.32 5.14V9.14C18.32 9.34 18.28 9.56667 18.2 9.82C18.12 10.06 18.02 10.26 17.9 10.42L17.64 10.76C17.5067 10.9333 17.3667 11.0733 17.22 11.18C17.0733 11.2867 16.9467 11.34 16.84 11.34ZM5.72 22.06C5.52 22.06 5.35333 21.9867 5.22 21.84C5.08667 21.7067 5.02 21.5467 5.02 21.36V8.58C5.02 8.38 5.08667 8.21333 5.22 8.08C5.35333 7.93333 5.52 7.86 5.72 7.86H5.8C5.98667 7.86 6.15333 7.93333 6.3 8.08C6.44667 8.21333 6.52 8.38 6.52 8.58V21.36C6.52 21.5467 6.44667 21.7067 6.3 21.84C6.15333 21.9867 5.98667 22.06 5.8 22.06H5.72ZM9.84 22.06C9.65333 22.06 9.49333 21.9867 9.36 21.84C9.22667 21.7067 9.16 21.5467 9.16 21.36V8.58C9.16 8.38 9.22667 8.21333 9.36 8.08C9.49333 7.93333 9.65333 7.86 9.84 7.86H9.94C10.14 7.86 10.3067 7.93333 10.44 8.08C10.5733 8.21333 10.64 8.38 10.64 8.58V21.36C10.64 21.5467 10.5733 21.7067 10.44 21.84C10.3067 21.9867 10.14 22.06 9.94 22.06H9.84Z" fill="#EB4898"/>
<path d="M22.94 12.452C22.956 12.524 22.964 12.624 22.964 12.752C22.964 12.88 22.956 12.98 22.94 13.052L22.568 15.644C22.536 15.836 22.48 16.024 22.4 16.208L21.704 17.804C21.6 18.052 21.416 18.176 21.152 18.176H20.912C20.784 18.176 20.68 18.144 20.6 18.08C20.528 18.024 20.492 17.944 20.492 17.84C20.492 17.76 20.508 17.684 20.54 17.612L21.224 16.124C21.304 15.94 21.356 15.748 21.38 15.548L21.728 13.04C21.744 12.896 21.752 12.8 21.752 12.752C21.752 12.704 21.744 12.608 21.728 12.464L21.38 9.968C21.356 9.768 21.304 9.576 21.224 9.392L20.54 7.904C20.5 7.808 20.48 7.732 20.48 7.676C20.48 7.572 20.52 7.492 20.6 7.436C20.68 7.372 20.784 7.34 20.912 7.34H21.152C21.416 7.34 21.6 7.464 21.704 7.712L22.4 9.308C22.48 9.492 22.536 9.68 22.568 9.872L22.94 12.452Z" fill="#EB4898"/>
</svg>
